# xmcd CD database file
#
# Track frame offsets:
#	150
#	18138
#	38702
#	58486
#	80525
#	105129
#	126111
#	144852
#	173018
#	197294
#	219308
#	239319
#	265138
#	287906
#
# Disc length: 4253 seconds
#
# Revision: 3
# Processed by: cddbd v1.5.2PL0 Copyright (c) Steve Scherf et al.
# Submitted via: CDex 1.51
#
DISCID=b5109b0e
DTITLE=Robert Cray - Live At The BBC
DYEAR=2007
DGENRE=Blues
TTITLE0=I Guess I Showed Her (Live)
TTITLE1=Foul Play (Live)
TTITLE2=Don't Be Afraid Of The Dark (Live)
TTITLE3=Don't You Even Care (Live)
TTITLE4=Night Patrol (Live)
TTITLE5=Nothin' But A Woman (Live)
TTITLE6=Phone Booth (Live)
TTITLE7=These Things (Live)
TTITLE8=My Problem (Live)
TTITLE9=The Forecast (Calls For Pain) (Live)
TTITLE10=Consequences (Live)
TTITLE11=Right Next Door (Because Of Me) (Live)
TTITLE12=Acting This Way (Live)
TTITLE13=Smoking Gun (Live)
EXTD=YEAR: 2007
EXTT0=
EXTT1=
EXTT2=
EXTT3=
EXTT4=
EXTT5=
EXTT6=
EXTT7=
EXTT8=
EXTT9=
EXTT10=
EXTT11=
EXTT12=
EXTT13=
PLAYORDER=
